<?xml version="1.0" encoding="UTF-8"?>
<svg id="Layer_2" data-name="Layer 2" xmlns="http://www.w3.org/2000/svg" viewBox="0 0 1076.13 1076.13">
  <defs>
    <style>
      .cls-1 {
        fill: #fff;
      }

      .cls-2 {
        fill: #ff073a;
      }
    </style>
  </defs>
  <g id="Layer_1-2" data-name="Layer 1">
    <g>
      <g>
        <circle class="cls-2" cx="538.06" cy="538.06" r="538.06"/>
        <g>
          <path class="cls-1" d="M589.12,763.01s-.02,.02-.03,.03-.02,.02-.03,.03-.02,.02-.03,.03c0,0-.02,.02-.03,.03l-.03,.03s-.02,.02-.03,.03c0,0-.02,.02-.03,.03s-.02,.02-.03,.03c0,0,0-.02,0-.03,0,0,0-.02,0-.03s0-.02,0-.03c0,0,0-.02,0-.03,0,0,0-.02,0-.03,0,0,0-.02,0-.03,0,0,0-.02,0-.03s0-.02,0-.03h.02s.01,0,.02,0c0,0,.01,0,.02,0,0,0,.01,0,.02,0,0,0,.01,0,.02,0,0,0,.01,0,.02,0,0,0,.01,0,.02,0,0,0,.01,0,.02,0Z"/>
          <g>
            <path class="cls-1" d="M382.98,233.94c-29.17-1.46-49.05-11.94-69.3-29.3,7.28,30.82,3.11,56.49-10.35,77.98,36.1-5.18,61.88-22.3,79.65-48.68Z"/>
            <path class="cls-1" d="M628.48,199.57c-22.12-12.4-38.08-32.94-46.48-63.47-9.44,24.94-21.86,43.68-46.76,58.95,28.24,14.62,59.07,17.29,93.23,4.52Z"/>
            <path class="cls-1" d="M704.82,158.18l-11.31,129.21c-2.18-.75-4.39-1.51-6.67-2.26-41.66-22.58-89.37-35.37-140.07-35.37-103,0-193.65,52.83-246.33,132.9l-83.96-99.76c96.05,36.9,210.3,1.66,215.72-173.61,88.85,151.23,206.02,127.3,272.61,48.89Z"/>
          </g>
          <path class="cls-1" d="M738.55,609.44c-18.53-21.64-39.52-37.16-62.97-46.55-23.5-9.39-56.9-20.09-100.19-32.09v-121.33c23.5,8.39,36.76,26.62,39.92,54.79h143.22c-3.67-49.01-21.39-87.38-53.23-115.05-31.84-27.62-75.13-43.54-129.92-47.71-.13,0-.26-.02-.39-.02v-44.11h-51.47v44.34c-1.6,.1-3.08,.2-4.38,.3-.65,0-1.36,.05-2.01,.15-.7,.05-1.41,.1-2.06,.15-.15,.05-.25,.05-.35,.05-.4,.05-.8,.1-1.21,.15-.8,.05-1.26,.1-1.26,.1-49.46,5.17-90.34,21.04-122.73,47.41-35.2,28.67-52.83,66.79-52.83,114.25,0,38.12,9.14,68.1,27.37,89.99,18.28,21.95,39.52,37.87,63.78,47.76,24.31,9.89,56.75,20.09,97.47,30.53v123.64c-27.17-8.89-42.28-28.98-45.4-60.26h-142.42c2.06,49.06,20.04,87.78,53.99,116.21,33.9,28.42,78.49,45,133.83,49.72v64.18h50.07v-63.43c39.62-1.56,73.97-10.04,102.9-25.41,28.98-15.42,50.87-35.2,65.74-59.51,14.91-24.26,22.35-50.72,22.35-79.4,0-37.56-9.29-67.19-27.82-88.84Zm-213.23-95.11c-15.17-6.73-26.77-14.56-34.85-23.45-8.09-8.89-12.1-19.84-12.1-32.89,0-15.12,4.17-26.97,12.5-35.61,8.34-8.59,19.84-14.21,34.45-16.82v108.77Zm87.23,225.43c-9.14,9.89-21.49,16.17-37.16,18.78v-111.13c16.67,6.23,29.33,13.66,37.97,22.3,8.59,8.59,12.91,19.69,12.91,33.24,0,14.61-4.57,26.87-13.71,36.81Z"/>
        </g>
      </g>
      <g>
        <polygon class="cls-1" points="413.76 106.81 427.58 90.15 447.7 98.14 436.12 79.85 449.94 63.19 428.96 68.55 417.39 50.25 416 71.86 395.02 77.21 415.14 85.21 413.76 106.81"/>
        <polygon class="cls-1" points="584.55 120.45 596.7 126.02 590.14 114.37 599.19 104.53 586.09 107.17 579.53 95.52 577.99 108.8 564.88 111.44 577.03 117.01 575.49 130.29 584.55 120.45"/>
        <polygon class="cls-1" points="719.52 131.15 717.38 117.96 711.35 129.89 698.14 127.85 707.63 137.27 701.6 149.2 713.49 143.09 722.98 152.51 720.84 139.31 732.73 133.2 719.52 131.15"/>
        <polygon class="cls-1" points="298.04 202.3 306.03 191.59 318.69 195.88 310.97 184.96 318.97 174.25 306.2 178.22 298.48 167.31 298.31 180.67 285.55 184.64 298.21 188.93 298.04 202.3"/>
        <polygon class="cls-1" points="206.09 265.37 209.9 252.56 199.29 260.68 188.28 253.1 192.73 265.71 182.12 273.84 195.48 273.5 199.93 286.1 203.74 273.29 217.1 272.95 206.09 265.37"/>
      </g>
    </g>
  </g>
</svg>