<?xml version="1.0" encoding="UTF-8"?>
<svg id="Layer_2" data-name="Layer 2" xmlns="http://www.w3.org/2000/svg" viewBox="0 0 1221 745.77">
  <defs>
    <style>
      .cls-1 {
        fill: #fff;
      }

      .cls-2 {
        fill: #ff073a;
      }

      .cls-3 {
        fill: #090909;
      }
    </style>
  </defs>
  <g id="Layer_1-2" data-name="Layer 1">
    <g>
      <g>
        <g>
          <circle class="cls-2" cx="610.5" cy="228.47" r="228.47"/>
          <g>
            <path class="cls-1" d="M632.18,323.99s0,0-.01,.01,0,0-.01,.01,0,0-.01,.01c0,0,0,0-.01,.01h-.01s0,.02-.01,.02c0,0,0,0-.01,.01s0,0-.01,.01c0,0,0,0,0-.01,0,0,0,0,0-.01s0,0,0-.01c0,0,0,0,0-.01,0,0,0,0,0-.01,0,0,0,0,0-.01,0,0,0,0,0-.01s0,0,0-.01h0s0,0,0,0c0,0,0,0,0,0,0,0,0,0,0,0,0,0,0,0,0,0,0,0,0,0,0,0,0,0,0,0,0,0,0,0,0,0,0,0Z"/>
            <g>
              <path class="cls-1" d="M544.65,99.34c-12.39-.62-20.83-5.07-29.43-12.44,3.09,13.09,1.32,23.99-4.39,33.11,15.33-2.2,26.27-9.47,33.82-20.67Z"/>
              <path class="cls-1" d="M648.89,84.74c-9.39-5.27-16.17-13.99-19.73-26.95-4.01,10.59-9.28,18.55-19.86,25.03,11.99,6.21,25.08,7.34,39.59,1.92Z"/>
              <path class="cls-1" d="M681.31,67.17l-4.8,54.86c-.93-.32-1.86-.64-2.83-.96-17.69-9.59-37.95-15.02-59.48-15.02-43.73,0-82.23,22.43-104.59,56.43l-35.65-42.36c40.78,15.67,89.3,.7,91.6-73.72,37.73,64.22,87.48,54.05,115.76,20.76Z"/>
            </g>
            <path class="cls-1" d="M695.63,258.78c-7.87-9.19-16.78-15.78-26.74-19.77-9.98-3.99-24.16-8.53-42.54-13.63v-51.52c9.98,3.56,15.61,11.3,16.95,23.26h60.82c-1.56-20.81-9.08-37.1-22.6-48.85-13.52-11.73-31.9-18.49-55.17-20.26-.06,0-.11,0-.17-.01v-18.73h-21.86v18.83c-.68,.04-1.31,.09-1.86,.13-.28,0-.58,.02-.85,.06-.3,.02-.6,.04-.87,.06-.06,.02-.11,.02-.15,.02-.17,.02-.34,.04-.51,.06-.34,.02-.53,.04-.53,.04-21,2.2-38.36,8.93-52.12,20.13-14.95,12.18-22.43,28.36-22.43,48.51,0,16.18,3.88,28.92,11.62,38.21,7.76,9.32,16.78,16.08,27.08,20.28,10.32,4.2,24.1,8.53,41.39,12.96v52.5c-11.54-3.77-17.95-12.3-19.28-25.59h-60.47c.87,20.83,8.51,37.27,22.92,49.34,14.39,12.07,33.33,19.11,56.83,21.11v27.25h21.26v-26.93c16.82-.66,31.41-4.26,43.69-10.79,12.3-6.55,21.6-14.95,27.91-25.27,6.33-10.3,9.49-21.54,9.49-33.71,0-15.95-3.95-28.53-11.81-37.72Zm-90.54-40.39c-6.44-2.86-11.37-6.18-14.8-9.96-3.43-3.77-5.14-8.42-5.14-13.97,0-6.42,1.77-11.45,5.31-15.12,3.54-3.65,8.42-6.03,14.63-7.14v46.19Zm37.04,95.72c-3.88,4.2-9.13,6.87-15.78,7.98v-47.19c7.08,2.64,12.45,5.8,16.12,9.47,3.65,3.65,5.48,8.36,5.48,14.12,0,6.21-1.94,11.41-5.82,15.63Z"/>
          </g>
        </g>
        <g>
          <polygon class="cls-1" points="557.72 45.36 563.58 38.28 572.13 41.67 567.21 33.91 573.08 26.83 564.17 29.11 559.26 21.34 558.67 30.51 549.76 32.79 558.31 36.18 557.72 45.36"/>
          <polygon class="cls-1" points="630.24 51.14 635.4 53.51 632.61 48.56 636.46 44.39 630.89 45.51 628.11 40.56 627.45 46.2 621.89 47.32 627.05 49.68 626.39 55.32 630.24 51.14"/>
          <polygon class="cls-1" points="687.55 55.69 686.64 50.09 684.08 55.15 678.47 54.29 682.5 58.29 679.94 63.35 684.99 60.76 689.02 64.76 688.11 59.15 693.16 56.56 687.55 55.69"/>
          <polygon class="cls-1" points="508.58 85.9 511.98 81.35 517.35 83.17 514.07 78.54 517.47 73.99 512.05 75.68 508.77 71.04 508.7 76.72 503.28 78.4 508.65 80.22 508.58 85.9"/>
          <polygon class="cls-1" points="469.54 112.68 471.16 107.24 466.65 110.69 461.97 107.47 463.86 112.82 459.36 116.28 465.03 116.13 466.92 121.48 468.54 116.04 474.21 115.9 469.54 112.68"/>
        </g>
      </g>
      <g>
        <g>
          <path class="cls-3" d="M150.5,687.22c0,35.02-28.74,58.54-71.52,58.54-49.54,0-73.15-30.94-78.98-59.19H27.9c4.69,12.75,18.2,36.37,53.79,36.37,13.71,0,24.89-3.62,32.32-10.46,6.01-5.47,9.77-13.34,9.77-22.1v-.12c0-24.81-26.25-31.67-45.44-36.68l-2.38-.6c-15.2-3.94-34.1-8.83-49.11-17.88-16.97-10.26-25.22-23.7-25.22-41.08,0-34.34,31.3-60.24,72.78-60.24s63.76,25.91,69.48,51.49h-27.51c-5.56-13.81-20.38-26.92-42.61-26.92-9.8,0-20.39,2.66-28.33,7.1-10.81,6.05-16.52,15-16.52,25.87,0,9.99,4.75,17.3,14.96,23,8.81,4.92,21.09,8.45,36.65,12.92l2.15,.6c16.5,4.74,33.57,9.66,46.59,18.57,14.47,9.88,21.21,22.86,21.21,40.8Z"/>
          <path class="cls-3" d="M257.18,723.51v22.26h-14.89c-28.15,0-51.05-22.9-51.05-51.05v-80.99h-27.92v-22.26h27.92v-57.69h22.25v160.94c.02,15.88,12.91,28.78,28.79,28.79h14.89Zm-.14-109.79h-43.55l23.52-22.26h20.02v22.26Z"/>
          <path class="cls-3" d="M293.9,598.86c-8.74,7.03-16.08,15.45-21.86,25.12-.13,.13,0-32.38,0-32.38h21.86v7.26Zm64.98,14.62h-7.84c-31.51,0-57.14,25.64-57.14,57.14v75.14h-21.86v-74.28c0-44.09,35.79-79.88,79.88-79.88,0,0,6.96,0,6.96,0v21.89Z"/>
          <path class="cls-3" d="M506.06,616.52c5.74,5.94,14.33,16.57,18.96,32.05,1.58,5.29,2.62,10.88,3.01,16.57v80.63h-21.97v-24.92c-6.41,6.97-13.99,12.68-22.56,16.94-.88,.44-1.78,.86-2.67,1.26l-.9,.4-.91,.39-.88,.36s-.06,.03-.09,.03c-.29,.12-.56,.22-.87,.34s-.6,.24-.93,.35l-.77,.28c-.68,.26-1.36,.49-2.05,.71-.3,.12-.63,.22-.95,.32-2.18,.69-4.4,1.28-6.66,1.78-.2,.05-.41,.09-.61,.13-.42,.09-.85,.18-1.27,.26-.2,.04-.41,.08-.61,.12l-.61,.11c-.28,.05-.57,.1-.85,.15-.44,.07-.87,.14-1.31,.2l-.64,.09-.53,.07c-.61,.08-1.22,.15-1.83,.22-.31,.03-.61,.06-.93,.09-.31,.03-.6,.06-.92,.08h-.17l-.59,.04-.59,.04c-.27,.02-.51,.03-.82,.05-.31,.02-.62,.04-.94,.04-1.07,.05-2.15,.07-3.23,.07-42.51,0-77.08-34.56-77.08-77.08s34.57-77.08,77.07-77.07c1.08,0,2.16,.02,3.23,.07l.94,.05c.28,.01,.55,.03,.82,.05l.59,.04,.59,.04,.17,.02c.31,.02,.62,.05,.92,.08l.93,.09c.61,.06,1.22,.14,1.83,.22l.53,.07,.64,.09c.44,.06,.87,.13,1.3,.2l.85,.14c.33,.06,.68,.12,1,.18,.3,.05,.6,.11,.9,.17l.12,.03c.32,.06,.64,.13,.96,.2l.9,.2,.15,.03c.96,.22,1.91,.46,2.85,.72,1.29,.35,2.57,.73,3.83,1.15,.34,.11,.69,.23,1.03,.35l.86,.3,.93,.34c.93,.35,1.85,.71,2.77,1.09,10.37,4.34,19.54,10.82,27.04,18.96h0Zm-4.54,70.32c1.97-5.66,3.06-11.75,3.06-18.08v-.06c0-1.18-.04-2.37-.11-3.54-1.84-28.78-25.86-51.66-55.1-51.66s-55.23,24.76-55.23,55.2,24.78,55.2,55.23,55.2c24.08,0,44.63-15.52,52.15-37.07Zm26.51-95.23s.11,37.01,0,36.9c-5.46-10.63-12.89-19.91-21.97-27.52v-9.38h21.97Z"/>
          <path class="cls-3" d="M636.22,723.51v22.26h-14.89c-28.15,0-51.05-22.9-51.05-51.05v-80.99h-27.92v-22.26h27.92v-57.69h22.25v160.94c.02,15.88,12.91,28.78,28.79,28.79h14.89Zm-.14-109.79h-43.55l23.52-22.26h20.02v22.26Z"/>
          <path class="cls-3" d="M797.96,698.78c-11.71,27.61-39.04,46.96-70.9,46.96-22,0-41.86-9.24-55.9-24.06-3.11-3.3-5.9-6.8-8.42-10.58-2.46-3.73-4.61-7.71-6.37-11.86-4.04-9.35-6.31-19.73-6.31-30.56,0-42.52,34.52-77.04,77.04-77.04,22.01,0,41.87,9.25,55.91,24.06,3.11,3.27,5.89,6.77,8.39,10.55,1.99,3.04,3.78,6.23,5.34,9.55l-108.92,71.85,3.02,2.62c18.63,16.23,46.07,18.09,66.64,4.45,6.34-4.2,11.68-9.58,15.83-15.95,0,0,24.68-.03,24.64,0Zm-122.15-9.36l90.54-59.71s-3.04-2.63-3.02-2.62c-9.69-8.43-22.36-13.55-36.2-13.55-30.45,0-55.17,24.72-55.17,55.17,0,5.89,.93,11.57,2.64,16.89l1.22,3.82Z"/>
          <path class="cls-3" d="M949.64,723.77v21.99h-138.83l17.11-21.99,85.65-110.18h-93.84v-21.99h138.83l-17.11,21.99-85.65,110.18h93.84Z"/>
          <path class="cls-3" d="M972.85,533.77h23.35v23.35h-23.35v-23.35Zm0,57.93h23.35v154.07h-23.35v-154.07Z"/>
          <path class="cls-3" d="M1124.51,745.77h-32.46l-56.18-62.6-3.47-3.87-6.05-6.74-13.97-15.57v-123.22h23.49v113.22l13.85,15.43,74.79,83.35Zm-91.98-59.59l3.35,3.73v55.86h-23.49v-82.04l10.62,11.84,6.05,6.74,3.47,3.87Zm20.42-26.9l-12.57-14.01v-3.45l51.19-50.21h30.77l-69.4,67.67Z"/>
        </g>
        <path class="cls-2" d="M1087.22,529.29h126.62c1.64,0,3.14,.93,3.87,2.39l2.84,5.69c.67,1.34,.6,2.92-.18,4.19l-67.55,110.16c-.79,1.28-2.18,2.06-3.69,2.06h0c-2.87,0-7.02-7.63-6.24-10.39,5.75-20.44,22.04-86.77-54.65-99.37-1.64-.27-2.97-1.48-3.42-3.07l-1.76-6.15c-.79-2.76,1.28-5.51,4.16-5.51Z"/>
      </g>
    </g>
  </g>
</svg>